<svg width="128" height="103" viewBox="0 0 128 103" fill="none" xmlns="http://www.w3.org/2000/svg">
<path d="M19.2 45.0625C26.26 45.0625 32 39.2889 32 32.1875C32 25.0861 26.26 19.3125 19.2 19.3125C12.14 19.3125 6.4 25.0861 6.4 32.1875C6.4 39.2889 12.14 45.0625 19.2 45.0625ZM108.8 45.0625C115.86 45.0625 121.6 39.2889 121.6 32.1875C121.6 25.0861 115.86 19.3125 108.8 19.3125C101.74 19.3125 96 25.0861 96 32.1875C96 39.2889 101.74 45.0625 108.8 45.0625ZM115.2 51.5H102.4C98.88 51.5 95.7 52.9283 93.38 55.2418C101.44 59.6877 107.16 67.7145 108.4 77.25H121.6C125.14 77.25 128 74.3732 128 70.8125V64.375C128 57.2736 122.26 51.5 115.2 51.5ZM64 51.5C76.38 51.5 86.4 41.4213 86.4 28.9688C86.4 16.5162 76.38 6.4375 64 6.4375C51.62 6.4375 41.6 16.5162 41.6 28.9688C41.6 41.4213 51.62 51.5 64 51.5ZM79.36 57.9375H77.7C73.54 59.9492 68.92 61.1562 64 61.1562C59.08 61.1562 54.48 59.9492 50.3 57.9375H48.64C35.92 57.9375 25.6 68.318 25.6 81.1125V86.9062C25.6 92.2373 29.9 96.5625 35.2 96.5625H92.8C98.1 96.5625 102.4 92.2373 102.4 86.9062V81.1125C102.4 68.318 92.08 57.9375 79.36 57.9375ZM34.62 55.2418C32.3 52.9283 29.12 51.5 25.6 51.5H12.8C5.74 51.5 0 57.2736 0 64.375V70.8125C0 74.3732 2.86 77.25 6.4 77.25H19.58C20.84 67.7145 26.56 59.6877 34.62 55.2418Z" fill="#414FFF"/>
</svg>
