<svg width="128" height="91" viewBox="0 0 128 91" fill="none" xmlns="http://www.w3.org/2000/svg">
<path d="M40.96 34.35C38.84 31.5135 34.82 30.9301 32 33.0625C29.18 35.1949 28.6 39.2385 30.72 42.075L38.34 52.2945C39.3 53.582 39.16 55.3725 38.04 56.499L35.48 59.074C34.14 60.4219 31.96 60.3213 30.76 58.8527L12.8 37.1664V7.3125C12.8 3.75176 9.94 0.875 6.4 0.875C2.86 0.875 0 3.75176 0 7.3125V51.2484C0 53.4412 0.74 55.5736 2.1 57.2836L22.92 84.301C23.92 85.6086 24.6 87.0973 25 88.6664C25.36 90.0545 26.62 91 28.06 91H54.4C56.16 91 57.6 89.5516 57.6 87.7812V65.25C57.6 59.6775 55.8 54.266 52.48 49.8L40.96 34.35ZM121.6 0.875C118.06 0.875 115.2 3.75176 115.2 7.3125V37.1664L97.24 58.8527C96.04 60.3012 93.84 60.4018 92.52 59.074L89.96 56.499C88.84 55.3725 88.7 53.582 89.66 52.2945L97.28 42.075C99.4 39.2385 98.82 35.1949 96 33.0625C93.18 30.9301 89.16 31.5135 87.04 34.35L75.52 49.8C72.2 54.266 70.4 59.6775 70.4 65.25V87.7812C70.4 89.5516 71.84 91 73.6 91H99.94C101.36 91 102.64 90.0545 103 88.6664C103.4 87.0973 104.08 85.6086 105.08 84.301L125.9 57.2836C127.26 55.5736 128 53.4412 128 51.2484V7.3125C128 3.75176 125.14 0.875 121.6 0.875Z" fill="#414FFF"/>
</svg>
