<svg width="128" height="103" viewBox="0 0 128 103" fill="none" xmlns="http://www.w3.org/2000/svg">
<g clip-path="url(#clip0)">
<path d="M60.2355 29.0291L72.2955 31.9059C72.7051 31.9926 73.0716 32.1993 73.3381 32.494C73.6045 32.7887 73.7559 33.1547 73.7689 33.5354C73.7689 34.4607 72.86 35.2252 71.7422 35.2252H63.8311C62.9786 35.223 62.1344 35.0727 61.3444 34.7826C60.18 34.34 58.8378 34.4406 57.9444 35.185L53.7222 38.7055C53.5269 38.8602 53.3584 39.0406 53.2222 39.2406C53.0479 39.4994 52.9319 39.7869 52.8809 40.0866C52.8299 40.3862 52.8449 40.692 52.925 40.9863C53.0052 41.2807 53.1489 41.5578 53.3479 41.8016C53.5469 42.0454 53.7972 42.2512 54.0844 42.407C56.4227 43.6774 59.0407 44.4672 61.7533 44.7205V48.2812C61.7533 50.0516 63.4933 51.5 65.6133 51.5H69.4733C71.5956 51.5 73.3356 50.0516 73.3356 48.2812V44.7406C80.6533 44.0164 86.1889 38.5043 85.2244 32.0668C84.5244 27.4398 80.2333 23.7584 74.8778 22.4709L62.8178 19.5941C62.4082 19.5074 62.0417 19.3007 61.7753 19.006C61.5088 18.7113 61.3574 18.3453 61.3444 17.9646C61.3444 17.0393 62.2533 16.2748 63.3711 16.2748H71.2822C72.1377 16.276 72.985 16.4263 73.7778 16.7174C74.94 17.16 76.2844 17.0594 77.1778 16.315L81.4 12.7945C81.5888 12.6431 81.7514 12.4668 81.8822 12.2715C82.058 12.0127 82.1754 11.725 82.2277 11.4249C82.2799 11.1248 82.266 10.8184 82.1867 10.5232C82.1073 10.228 81.9641 9.95 81.7654 9.7052C81.5667 9.46041 81.3164 9.25369 81.0289 9.09699C78.6898 7.82666 76.0711 7.0369 73.3578 6.78352V3.21875C73.3578 1.44844 71.62 0 69.4978 0H65.6378C63.5156 0 61.7778 1.44844 61.7778 3.21875V6.75937C54.4689 7.48359 48.9222 12.9957 49.8867 19.4332C50.5844 24.0602 54.8889 27.7416 60.2355 29.0291ZM125.616 66.0045C122.993 63.852 118.904 63.9928 116.149 66.0045L95.6155 80.8711C93.095 82.7017 89.958 83.6956 86.7267 83.6875H60.4444C59.5014 83.6875 58.5971 83.3484 57.9303 82.7448C57.2635 82.1411 56.8889 81.3224 56.8889 80.4688C56.8889 79.6151 57.2635 78.7964 57.9303 78.1927C58.5971 77.5891 59.5014 77.25 60.4444 77.25H77.8422C81.3755 77.25 84.6667 75.0572 85.2311 71.8988C85.3007 71.5361 85.3349 71.1686 85.3333 70.8004C85.3298 69.0952 84.579 67.4609 83.2458 66.2562C81.9126 65.0516 80.1059 64.375 78.2222 64.375H42.6667C36.6702 64.3764 30.8566 66.2437 26.2 69.6638L15.8667 77.25H3.55556C2.61256 77.25 1.70819 77.5891 1.0414 78.1927C0.374602 78.7964 0 79.6151 0 80.4688L0 99.7812C0 100.635 0.374602 101.454 1.0414 102.057C1.70819 102.661 2.61256 103 3.55556 103H82.8378C86.0681 103.002 89.203 102.009 91.7267 100.184L125.333 75.8418C126.142 75.2565 126.799 74.5184 127.26 73.6792C127.721 72.8399 127.973 71.9198 128 70.983C128.027 70.0462 127.828 69.1153 127.417 68.2554C127.005 67.3955 126.391 66.6273 125.618 66.0045H125.616Z" fill="#414FFF"/>
</g>
<defs>
<clipPath id="clip0">
<rect width="128" height="103" fill="white"/>
</clipPath>
</defs>
</svg>
